<svg height="512" viewBox="0 0 74 74" width="512" xmlns="http://www.w3.org/2000/svg"><g id="Icons"><path d="m22.545 24.241a4.085 4.085 0 0 0 -3.381 5.106 4.071 4.071 0 0 0 4.511 3.753" fill="#fcd462"/><path d="m23.368 33.615c-1.265 0-4.058-.438-4.7-4.184a4.915 4.915 0 0 1 .721-3.862 4.982 4.982 0 0 1 3.086-1.823.5.5 0 0 1 .137.991 4.02 4.02 0 0 0 -2.422 1.432 3.963 3.963 0 0 0 -.535 3.095 3.588 3.588 0 0 0 3.984 3.343.5.5 0 0 1 .066 1c-.092.003-.205.008-.337.008z" fill="#323c6b"/><path d="m51.455 24.241a4.085 4.085 0 0 1 3.381 5.106 4.071 4.071 0 0 1 -4.511 3.753" fill="#fcd462"/><path d="m50.632 33.615c-.131 0-.245 0-.34-.011a.5.5 0 0 1 -.466-.532.506.506 0 0 1 .532-.466 3.59 3.59 0 0 0 3.984-3.343 3.963 3.963 0 0 0 -.535-3.095 4.02 4.02 0 0 0 -2.422-1.432.5.5 0 0 1 .137-.991 4.982 4.982 0 0 1 3.086 1.823 4.915 4.915 0 0 1 .721 3.862c-.64 3.747-3.429 4.185-4.697 4.185z" fill="#323c6b"/><path d="m46.309 46.89a18.283 18.283 0 0 1 17.727 18.274v5.836h-54.072v-5.836a18.283 18.283 0 0 1 17.727-18.274" fill="#e1e6e9"/><path d="m47.917 47.018c7.494 2.283 13.311 10.264 13.552 18.5v1.082a1.729 1.729 0 0 1 -1.729 1.729h-49.776v2.671h54.072v-5.836a18.279 18.279 0 0 0 -16.119-18.146z" fill="#d5d6db"/><path d="m27.692 46.94 1.793-1.898 7.515 4.614-6.276 5.32z" fill="#fff"/><path d="m30.725 55.476a.493.493 0 0 1 -.125-.016.5.5 0 0 1 -.343-.307l-3.032-8.036a.5.5 0 0 1 .1-.52l1.793-1.9a.5.5 0 0 1 .625-.083l7.515 4.614a.5.5 0 0 1 .062.808l-6.275 5.32a.5.5 0 0 1 -.32.12zm-2.454-8.42 2.672 7.08 5.208-4.416-6.581-4.04z" fill="#323c6b"/><path d="m39.747 51.985-.939 1.787h-3.575l-.952-1.811 2.719-2.305z" fill="#fe7058"/><path d="m38.808 54.271h-3.576a.5.5 0 0 1 -.442-.271l-.951-1.811a.5.5 0 0 1 .119-.614l2.719-2.305a.5.5 0 0 1 .646 0l2.747 2.33a.5.5 0 0 1 .119.614l-.939 1.786a.5.5 0 0 1 -.442.271zm-3.273-1h2.972l.612-1.165-2.119-1.794-2.09 1.771z" fill="#323c6b"/><path d="m32.858 67.429 2.375-13.657h3.575l2.363 13.574-4.172 3.654z" fill="#fe7058"/><path d="m37 71.5a.5.5 0 0 1 -.326-.122l-4.141-3.571a.5.5 0 0 1 -.166-.464l2.373-13.657a.5.5 0 0 1 .492-.415h3.575a.5.5 0 0 1 .492.414l2.364 13.575a.5.5 0 0 1 -.163.462l-4.172 3.654a.5.5 0 0 1 -.328.124zm-3.6-4.264 3.6 3.1 3.634-3.183-2.247-12.882h-2.734z" fill="#323c6b"/><path d="m46.308 46.94-1.793-1.898-7.515 4.614 6.276 5.32z" fill="#fff"/><path d="m43.275 55.476a.5.5 0 0 1 -.323-.119l-6.275-5.32a.5.5 0 0 1 .062-.808l7.515-4.614a.5.5 0 0 1 .625.083l1.793 1.9a.5.5 0 0 1 .1.52l-3.032 8.036a.5.5 0 0 1 -.343.307.493.493 0 0 1 -.122.015zm-5.425-5.755 5.208 4.416 2.672-7.08-1.3-1.376z" fill="#323c6b"/><path d="m30.148 42.565-.66 2.476-.003.001 7.515 4.614 7.515-4.614-.003-.001-.651-2.448" fill="#fcd462"/><path d="m37 50.156a.5.5 0 0 1 -.262-.074l-7.515-4.614a.5.5 0 0 1 -.223-.555l.662-2.477a.5.5 0 0 1 .967.258l-.564 2.117 6.935 4.258 6.934-4.257-.556-2.09a.5.5 0 0 1 .967-.257l.641 2.413.009.028a.5.5 0 0 1 -.218.562l-7.515 4.614a.5.5 0 0 1 -.262.074z" fill="#323c6b"/><path d="m51.454 24.527v2.755a19.529 19.529 0 0 1 -4.516 11.757c-2.184 2.637-5.628 6-9.189 6h-1.5c-3.562 0-7.005-3.365-9.189-6a19.529 19.529 0 0 1 -4.516-11.757v-3.04a17.5 17.5 0 0 1 1.436-4.978 6.232 6.232 0 0 1 7.8-3.08 11.226 11.226 0 0 0 3.955.9 37.672 37.672 0 0 0 7.1-.639c5.884.374 7.841 5.165 8.412 7.192.01 0 .01 0 0 .01.039.138.069.256.1.364.077.319.107.516.107.516z" fill="#fcd462"/><path d="m51.355 24.006c-.03-.108-.059-.226-.1-.364.01-.01.01-.01 0-.01-.571-2.027-2.529-6.818-8.412-7.192-.359.07-.739.127-1.114.186 4.829.962 6.533 5.145 7.057 7.007.01 0 .01 0 0 .01.039.138.069.256.1.364.069.325.1.521.1.521v2.755a19.53 19.53 0 0 1 -4.516 11.757c-2.084 2.516-5.316 5.688-8.7 5.974.162.014.324.028.487.028h1.5c3.562 0 7.005-3.365 9.19-6a19.529 19.529 0 0 0 4.516-11.757v-2.758s-.039-.196-.108-.521z" fill="#f7be56"/><path d="m22.547 24.742a.5.5 0 0 1 -.5-.5v-.127a.5.5 0 1 1 1 0v.127a.5.5 0 0 1 -.5.5z" fill="#323c6b"/><path d="m51.454 24.527s-.03-.2-.1-.521c-.03-.108-.059-.236-.1-.364.01-.01.01-.01 0-.01-.561-2.1-2.5-7.1-8.412-7.192a37.672 37.672 0 0 1 -7.1.639 11.226 11.226 0 0 1 -3.955-.9 6.232 6.232 0 0 0 -7.8 3.08 17.5 17.5 0 0 0 -1.436 4.978 20.73 20.73 0 0 1 -1.171-3.424c-1.712-7.861 3.729-16.8 11.718-17.68 1.256-.133 3.322-.133 4.896-.133 8.658 0 12.328 5.146 12.328 8.432 1.909.079 5.047 5.854 1.132 13.095z" fill="#707583"/><path d="m50.322 11.432c0-3.286-3.67-8.432-12.328-8.432-1.574 0-3.64 0-4.9.138a12.363 12.363 0 0 0 -6.974 3.254 11.945 11.945 0 0 1 4.985-1.754c1.26-.138 3.326-.138 4.895-.138 7.586 0 11.342 3.95 12.157 7.138a2.924 2.924 0 0 0 1.01 1.642c1.441 1.088 2.917 4.618 1.71 9.191.163.436.288.836.375 1.161.01 0 .01 0 0 .01.039.128.069.256.1.364.069.325.1.521.1.521 3.917-7.241.779-13.016-1.13-13.095z" fill="#62667c"/><path d="m22.43 55.114a.5.5 0 0 1 -.5-.484c-.271-8.325 4.363-12.088 7.149-13.591a.5.5 0 1 1 .475.88c-3.154 1.702-6.866 5.281-6.624 12.681a.5.5 0 0 1 -.483.516z" fill="#323c6b"/><circle cx="23.02" cy="57.138" fill="#9297ab" r="2.857"/><path d="m23.02 60.495a3.357 3.357 0 1 1 3.356-3.357 3.361 3.361 0 0 1 -3.356 3.357zm0-5.713a2.357 2.357 0 1 0 2.356 2.356 2.359 2.359 0 0 0 -2.356-2.357z" fill="#323c6b"/><circle cx="23.02" cy="57.138" fill="#707583" r=".825"/><g fill="#323c6b"><path d="m51.542 53.265a.5.5 0 0 1 -.5-.47c-.374-6.25-3.793-9.369-6.6-10.885a.5.5 0 0 1 .477-.88c3.025 1.637 6.717 5 7.118 11.705a.5.5 0 0 1 -.469.529z"/><path d="m56.592 63.692h-.633a.5.5 0 1 1 0-1h.633a.828.828 0 0 0 .828-.828v-.964c0-4.575-2.4-7.649-5.966-7.649s-5.967 3.074-5.967 7.649v.96a.828.828 0 0 0 .828.828h.817a.5.5 0 0 1 0 1h-.817a1.83 1.83 0 0 1 -1.828-1.828v-.96c0-5.092 2.865-8.649 6.967-8.649s6.966 3.561 6.966 8.649v.96a1.83 1.83 0 0 1 -1.828 1.832z"/><path d="m47.13 64.586a.5.5 0 0 1 -.5-.5v-1.786a.5.5 0 0 1 1 0v1.789a.5.5 0 0 1 -.5.497z"/><path d="m55.962 64.586a.5.5 0 0 1 -.5-.5v-1.786a.5.5 0 0 1 1 0v1.789a.5.5 0 0 1 -.5.497z"/><path d="m10.413 54a.5.5 0 0 1 -.419-.773 21.535 21.535 0 0 1 5.635-5.862.5.5 0 1 1 .576.816 20.55 20.55 0 0 0 -5.373 5.591.5.5 0 0 1 -.419.228z"/><path d="m8.883 56.787a.5.5 0 0 1 -.456-.706q.136-.3.281-.6a.5.5 0 0 1 .9.444c-.093.186-.181.373-.266.562a.5.5 0 0 1 -.459.3z"/><path d="m52.7 8.833a.5.5 0 0 1 -.467-.32 11.666 11.666 0 0 0 -4.6-5.469.5.5 0 1 1 .543-.84 12.679 12.679 0 0 1 4.992 5.948.5.5 0 0 1 -.287.646.494.494 0 0 1 -.181.035z"/><path d="m54.809 12.042a.5.5 0 0 1 -.432-.248 8.423 8.423 0 0 0 -.521-.785.5.5 0 1 1 .8-.6 9.073 9.073 0 0 1 .586.881.5.5 0 0 1 -.432.752z"/><path d="m64.036 71.5h-54.072a.5.5 0 0 1 -.5-.5v-5.836a18.688 18.688 0 0 1 18.213-18.774.494.494 0 0 1 .515.485.5.5 0 0 1 -.485.515 17.692 17.692 0 0 0 -17.243 17.774v5.336h53.072v-5.336a17.691 17.691 0 0 0 -17.241-17.774.5.5 0 0 1 -.485-.515.519.519 0 0 1 .515-.485 18.688 18.688 0 0 1 18.211 18.774v5.836a.5.5 0 0 1 -.5.5z"/><path d="m51.454 25.027a.5.5 0 0 1 -.494-.424c0-.007-.03-.192-.094-.495l-.023-.086c-.019-.075-.04-.155-.064-.235a.506.506 0 0 1 -.015-.065c-.553-2.038-2.411-6.671-7.875-6.781a38.542 38.542 0 0 1 -7.147.638 11.675 11.675 0 0 1 -4.13-.927 5.757 5.757 0 0 0 -7.177 2.828 17.076 17.076 0 0 0 -1.391 4.82.5.5 0 0 1 -.423.439.508.508 0 0 1 -.533-.3 21.419 21.419 0 0 1 -1.2-3.515 16 16 0 0 1 2.754-12.52 13.413 13.413 0 0 1 9.4-5.765c1.284-.139 3.318-.139 4.952-.139 8.525 0 12.531 4.85 12.813 8.521a3.794 3.794 0 0 1 1.872 1.821c1.4 2.468 1.934 6.9-.785 11.923a.5.5 0 0 1 -.44.262zm-8.609-9.087h.008c5.846.087 8.023 4.709 8.763 7.127 1.835-4.147 1.352-7.693.194-9.731-.54-.95-1.146-1.39-1.508-1.4a.5.5 0 0 1 -.479-.5c0-3.2-3.759-7.932-11.828-7.932-1.525 0-3.613 0-4.845.135a12.429 12.429 0 0 0 -8.7 5.354 14.983 14.983 0 0 0 -2.589 11.722 15.085 15.085 0 0 0 .506 1.717 16.833 16.833 0 0 1 1.161-3.381 6.763 6.763 0 0 1 8.429-3.332 10.84 10.84 0 0 0 3.78.863 37.436 37.436 0 0 0 7.008-.63.482.482 0 0 1 .1-.012z"/><path d="m37.748 45.541h-1.5c-3.68 0-7.237-3.362-9.574-6.183a20 20 0 0 1 -4.632-12.076v-3.04a17.719 17.719 0 0 1 1.485-5.194 6.763 6.763 0 0 1 8.429-3.332 10.84 10.84 0 0 0 3.78.863 37.436 37.436 0 0 0 7.008-.63.566.566 0 0 1 .127-.008c6.117.388 8.21 5.3 8.84 7.478l.01.022a.467.467 0 0 1 .035.149l.077.285c.079.369.11.576.11.576a.5.5 0 0 1 .006.076v2.755a20 20 0 0 1 -4.632 12.076c-2.33 2.821-5.887 6.183-9.569 6.183zm-8.148-29.252a5.72 5.72 0 0 0 -5.162 3.191 17.076 17.076 0 0 0 -1.394 4.82v2.985a18.961 18.961 0 0 0 4.4 11.438c2.2 2.655 5.514 5.82 8.8 5.82h1.5c3.293 0 6.605-3.165 8.8-5.82a18.961 18.961 0 0 0 4.4-11.438v-2.717c-.012-.068-.04-.23-.088-.459l-.091-.331c0-.017-.008-.033-.011-.05-.557-1.95-2.423-6.4-7.889-6.784a38.542 38.542 0 0 1 -7.135.636 11.675 11.675 0 0 1 -4.13-.927 5.749 5.749 0 0 0 -2-.364z"/></g><path d="m35.628 14.436a.549.549 0 0 1 -.057 0 13.127 13.127 0 0 1 -3.5-.907 5.74 5.74 0 0 0 -2.054-.357.681.681 0 0 1 -.659-.641.651.651 0 0 1 .642-.662 6.969 6.969 0 0 1 2.526.439 12.02 12.02 0 0 0 3.16.83.65.65 0 0 1 -.055 1.3z" fill="#fff"/><path d="m27.29 13.823a.65.65 0 0 1 -.29-1.232c.17-.085.346-.163.522-.233a.65.65 0 1 1 .478 1.209c-.143.057-.284.12-.423.188a.643.643 0 0 1 -.287.068z" fill="#fff"/></g></svg>