<?xml version="1.0"?>
<svg xmlns="http://www.w3.org/2000/svg" id="filled_outline" data-name="filled outline" viewBox="0 0 512 512" width="512" height="512"><path d="M448,320V176a16,16,0,0,1,16-16h0a16,16,0,0,1,16,16V320Z" style="fill:#a36522"/><path d="M352,112l24,0a24,24,0,0,0,24,24h0a24,24,0,0,0,24-24V72a32,32,0,0,0-32-32H352Z" style="fill:#a36522"/><path d="M296,40H280a32,32,0,0,0-32,32V96h48Z" style="fill:#a36522"/><path d="M488,360.35V424a63.98713,63.98713,0,0,1-64,64H232V336h64V152H256a32,32,0,0,1,0-64h24V56a32.004,32.004,0,0,1,32-32h32a32.004,32.004,0,0,1,32,32v96l88.86,134.95A127.98755,127.98755,0,0,1,488,360.35Z" style="fill:#b1712c"/><path d="M128,448H72a16,16,0,0,1-16-16V408a16,16,0,0,0-16-16h0a16,16,0,0,0-16,16v24a48,48,0,0,0,48,48h56Z" style="fill:#f78e00"/><path d="M256,328V488H136a48.01279,48.01279,0,0,1-48-48V424a47.99532,47.99532,0,0,1,19.2-38.4L184,328Z" style="fill:#ffb401"/><path d="M248,456h24a16,16,0,0,1,16,16v0a16,16,0,0,1-16,16H232Z" style="fill:#f78e00"/><path d="M240,288V230.48194a11.036,11.036,0,0,1,19.51406-7.06507l0,.00005A88.38558,88.38558,0,0,1,280,280v8Z" style="fill:#ffb401"/><path d="M208,288V230.48194a11.036,11.036,0,0,0-19.51406-7.06507l0,.00005A88.38558,88.38558,0,0,0,168,280v8Z" style="fill:#ffb401"/><circle cx="224" cy="328" r="72" style="fill:#ffc431"/><circle cx="248" cy="312" r="8"/><circle cx="224" cy="336" r="8"/><circle cx="200" cy="312" r="8"/><circle cx="312" cy="64" r="8"/><circle cx="344" cy="64" r="8"/><path d="M488,176a24,24,0,0,0-48,0v58.64417l-56-85.04163V139.695A31.97572,31.97572,0,0,0,432,112V72a40.04521,40.04521,0,0,0-40-40H376l-.021.001A39.962,39.962,0,0,0,344,16H312a39.96344,39.96344,0,0,0-32,16.02777V32a40.04521,40.04521,0,0,0-40,40V83.34991A39.99365,39.99365,0,0,0,256,160h32V280.05542c-.01416-.0188-.02948-.03662-.04358-.05542H288a96.56861,96.56861,0,0,0-22.33984-61.70459A19.0362,19.0362,0,0,0,232,230.48193V248.401c-2.632-.26257-5.3-.401-8-.401s-5.368.13843-8,.401V230.48193a19.0362,19.0362,0,0,0-33.66016-12.18652A96.56861,96.56861,0,0,0,160,280h.04358A79.581,79.581,0,0,0,144,328H128v16h17.60986c.16333.80139.35895,1.5907.54608,2.3833l-43.75555,32.8169A56.267,56.267,0,0,0,80,424v16H72a8.00917,8.00917,0,0,1-8-8V408a24,24,0,0,0-48,0v24a56.06353,56.06353,0,0,0,56,56h35.19037A55.65481,55.65481,0,0,0,136,496H424a72.08187,72.08187,0,0,0,72-72V360.34863a135.63876,135.63876,0,0,0-8-46.03ZM384,56V48h8a24.02687,24.02687,0,0,1,24,24v40a16,16,0,0,1-32,0Zm72,120a8,8,0,0,1,16,0V283.22479c-.17609-.25561-.34015-.51751-.51807-.77215L456,258.94177ZM256,72a24.03836,24.03836,0,0,1,16.5946-22.8255A40.054,40.054,0,0,0,272,56V80H256Zm-8,158.48193a3.03587,3.03587,0,0,1,5.36816-1.94336,80.52245,80.52245,0,0,1,16.73658,34.144A79.75316,79.75316,0,0,0,248,251.68292Zm-53.36816-1.94336A3.03587,3.03587,0,0,1,200,230.48193v21.201a79.75316,79.75316,0,0,0-22.10474,10.99964A80.52245,80.52245,0,0,1,194.63184,228.53857ZM72,472a40.04521,40.04521,0,0,1-40-40V408a8,8,0,0,1,16,0v24a24.02687,24.02687,0,0,0,24,24H82.34137a55.8,55.8,0,0,0,7.742,16Zm176,0a8,8,0,0,1-16,0V424H216v25.3761A23.88505,23.88505,0,0,0,208,448h-8V424H184v24h-4a12.01375,12.01375,0,0,1-12-12,28.03146,28.03146,0,0,0-28-28h-4v16h4a12.01375,12.01375,0,0,1,12,12,28.03146,28.03146,0,0,0,28,28h28a8,8,0,0,1,0,16H136a40.04521,40.04521,0,0,1-40-40V424a40.19176,40.19176,0,0,1,16-32l39.70532-29.77924A80.30065,80.30065,0,0,0,165.84058,382.846l-9.657,9.657,11.31348,11.31348,10.45709-10.4571A79.8302,79.8302,0,0,0,248,404.31708Zm10.52966-90.15686a63.77262,63.77262,0,0,1-69.05932,0l8.1864-8.1864-11.31348-11.31348-9.19415,9.19415A63.94653,63.94653,0,0,1,162.02527,344H176V328H160a64,64,0,0,1,128,0H272v16h13.97473a63.94653,63.94653,0,0,1-15.12384,27.53741l-9.19415-9.19415-11.31348,11.31348ZM288,375.94458v12.74194l-5.84058-5.84057A80.62623,80.62623,0,0,0,288,375.94458ZM272,480h-9.3761A23.88505,23.88505,0,0,0,264,472v-8h8a8,8,0,0,1,0,16Zm208-56a56.06353,56.06353,0,0,1-56,56H344a16,16,0,0,1,0-32h8a48.05436,48.05436,0,0,0,48-48,32.036,32.036,0,0,1,32-32V352a47.80155,47.80155,0,0,0-32,12.26141V296H384V400a32.036,32.036,0,0,1-32,32V336H336v97.01257A31.97388,31.97388,0,0,0,316.305,480H294.6239A23.99151,23.99151,0,0,0,272,448h-8V397.23737q3.11452-1.80635,6.04584-3.87806l10.45709,10.4571L288,396.31934V432h16V344h16V328H304V160h16V144H296a24.02687,24.02687,0,0,1-24-24H256a39.79044,39.79044,0,0,0,8.02185,24H256a24,24,0,0,1,0-48h24a7.99977,7.99977,0,0,0,8-8V56a24.0275,24.0275,0,0,1,24-24h32a24.0275,24.0275,0,0,1,24,24v96a8.0023,8.0023,0,0,0,1.31836,4.3999l88.86182,134.94531q.063.09449.12793.188A119.419,119.419,0,0,1,480,360.34863Z"/></svg>
