<svg height="469pt" viewBox="0 0 469.34705 469" width="469pt" xmlns="http://www.w3.org/2000/svg"><path d="m271.097656 253.582031-55.160156-55.160156c-8.332031-8.332031-21.839844-8.332031-30.171875 0l-15.085937 15.082031-106.664063 106.667969v42.667969l-42.667969 42.664062 42.667969 42.667969 42.664063-42.667969h42.667968l106.667969-106.664062 15.082031-15.085938c8.332032-8.332031 8.332032-21.839844 0-30.171875zm0 0" fill="#94d4ff"/><path d="m271.097656 253.582031-55.160156-55.160156c-8.332031-8.332031-21.839844-8.332031-30.171875 0l-15.085937 15.082031-106.664063 106.667969v42.667969l-42.667969 42.664062 42.667969 42.667969 42.664063-42.667969h42.667968l106.667969-106.664062 15.082031-15.085938c8.332032-8.332031 8.332032-21.839844 0-30.171875zm0 0" fill="#94d4ff"/><path d="m288.015625 192.171875c-4.316406 0-8.203125-2.597656-9.855469-6.585937-1.648437-3.984376-.738281-8.570313 2.3125-11.621094l170.667969-170.667969c4.164063-4.164063 10.917969-4.164063 15.082031 0 4.164063 4.164063 4.164063 10.917969 0 15.082031l-170.667968 170.667969c-1.996094 2.003906-4.710938 3.128906-7.539063 3.125zm0 0" fill="#cdd4df"/><path d="m322.601562 134.421875 12.496094 12.496094c8.332032 8.332031 8.332032 21.839843 0 30.167969l-36.417968 36.417968-42.664063-42.664062 36.417969-36.417969c8.328125-8.332031 21.835937-8.332031 30.167968 0zm0 0" fill="#94d4ff"/><path d="m317.292969 130.894531c-8.160157-4.425781-18.253907-2.992187-24.859375 3.527344l-36.417969 36.417969 21.332031 21.332031 36.417969-36.417969c6.519531-6.605468 7.949219-16.699218 3.527344-24.859375zm0 0" fill="#bce4ff"/><path d="m279.933594 134.421875 55.164062 55.164063c8.332032 8.328124 8.332032 21.835937 0 30.167968l-164.417968 164.417969-85.332032-85.332031 164.417969-164.417969c8.332031-8.332031 21.839844-8.332031 30.167969 0zm0 0" fill="#94d4ff"/><path d="m117.347656 373.503906 106.667969-106.664062 15.082031-15.085938c8.332032-8.332031 8.332032-21.839844 0-30.171875l-23.160156-23.160156c-8.332031-8.332031-21.839844-8.332031-30.171875 0l-15.085937 15.082031-106.664063 106.667969v42.667969l-42.667969 42.664062 10.667969 10.667969 42.664063-42.667969zm0 0" fill="#bce4ff"/><path d="m117.347656 373.503906 106.667969-106.664062 15.082031-15.085938c8.332032-8.332031 8.332032-21.839844 0-30.171875l-23.160156-23.160156c-8.332031-8.332031-21.839844-8.332031-30.171875 0l-15.085937 15.082031-106.664063 106.667969v42.667969l-42.667969 42.664062 10.667969 10.667969 42.664063-42.667969zm0 0" fill="#bce4ff"/><path d="m181.347656 202.839844 85.332032 85.332031 68.417968-68.417969c8.332032-8.332031 8.332032-21.839844 0-30.171875l-55.160156-55.160156c-8.332031-8.332031-21.839844-8.332031-30.171875 0zm0 0" fill="#ffa300"/><path d="m303.097656 157.582031-23.160156-23.160156c-8.332031-8.332031-21.839844-8.332031-30.171875 0l-164.417969 164.417969 53.332032 53.332031 164.417968-164.417969c8.332032-8.332031 8.332032-21.839844 0-30.171875zm0 0" fill="#bce4ff"/><path d="m303.097656 157.582031-23.160156-23.160156c-8.332031-8.332031-21.839844-8.332031-30.171875 0l-68.417969 68.417969 53.332032 53.332031 68.417968-68.417969c8.332032-8.332031 8.332032-21.839844 0-30.171875zm0 0" fill="#ffc200"/><path d="m68.433594 260.589844c5.890625-5.890625 15.441406-5.890625 21.332031 0l119.164063 119.164062c5.890624 5.890625 5.890624 15.441406 0 21.332032-5.890626 5.890624-15.441407 5.890624-21.335938 0l-119.160156-119.160157c-5.894532-5.894531-5.894532-15.445312 0-21.335937zm0 0" fill="#bce4ff"/><path d="m4.433594 388.589844c5.890625-5.890625 15.441406-5.890625 21.332031 0l55.164063 55.164062c5.890624 5.890625 5.890624 15.441406 0 21.332032-5.890626 5.890624-15.441407 5.890624-21.335938 0l-55.160156-55.160157c-5.894532-5.894531-5.894532-15.445312 0-21.335937zm0 0" fill="#bce4ff"/><path d="m4.433594 388.589844c5.890625-5.890625 15.441406-5.890625 21.332031 0l33.828125 33.832031c5.894531 5.890625 5.894531 15.441406 0 21.332031-5.890625 5.890625-15.441406 5.890625-21.332031 0l-33.828125-33.828125c-5.894532-5.894531-5.894532-15.445312 0-21.335937zm0 0" fill="#eff2ff"/><path d="m185.765625 198.421875-15.085937 15.082031 85.335937 85.335938 15.082031-15.085938c8.332032-8.332031 8.332032-21.839844 0-30.167968l-55.164062-55.164063c-8.328125-8.332031-21.835938-8.332031-30.167969 0zm0 0" fill="#163969"/><path d="m176.929688 369.085938c5.890624-5.890626 5.890624-15.441407 0-21.332032l-87.164063-87.164062c-5.890625-5.894532-15.445313-5.894532-21.335937-.003906-5.894532 5.894531-5.890626 15.445312.003906 21.335937l87.164062 87.164063c5.890625 5.890624 15.441406 5.890624 21.332032 0zm0 0" fill="#eff2ff"/><path d="m239.097656 221.582031-23.160156-23.160156c-8.332031-8.332031-21.839844-8.332031-30.171875 0l-15.085937 15.082031 53.335937 53.335938 15.082031-15.085938c8.332032-8.332031 8.332032-21.839844 0-30.171875zm0 0" fill="#33527d"/><path d="m149.347656 298.839844c-8.628906-.003906-16.40625-5.199219-19.707031-13.171875-3.300781-7.96875-1.476563-17.144531 4.625-23.246094l21.332031-21.332031c8.328125-8.332032 21.835938-8.332032 30.167969 0 8.328125 8.328125 8.328125 21.835937 0 30.164062l-21.335937 21.335938c-3.996094 4.007812-9.421876 6.257812-15.082032 6.25zm0 0" fill="#eff2ff"/><path d="m234.679688 213.503906c-8.625 0-16.402344-5.195312-19.707032-13.167968-3.300781-7.972657-1.476562-17.144532 4.625-23.246094l21.332032-21.335938c8.332031-8.328125 21.835937-8.328125 30.167968 0 8.328125 8.332032 8.328125 21.839844 0 30.167969l-21.332031 21.332031c-3.996094 4.007813-9.425781 6.257813-15.085937 6.25zm0 0" fill="#ffff9d"/><path d="m426.679688 256.171875v-42.667969h-85.332032v42.667969s-42.667968 21.332031-42.667968 64v106.667969c0 23.5625 19.101562 42.664062 42.667968 42.664062h85.332032c23.566406 0 42.667968-19.101562 42.667968-42.664062v-106.667969c0-42.667969-42.667968-64-42.667968-64zm0 0" fill="#94d4ff"/><path d="m426.679688 426.839844v-106.667969c0-42.667969-42.664063-64-42.664063-64v-42.667969h-42.667969v42.667969s-42.667968 21.332031-42.667968 64v106.667969c0 23.5625 19.101562 42.664062 42.667968 42.664062h42.667969c23.5625 0 42.664063-19.101562 42.664063-42.664062zm0 0" fill="#bce4ff"/><path d="m298.679688 362.839844v64c0 23.5625 19.101562 42.664062 42.667968 42.664062h85.332032c23.566406 0 42.667968-19.101562 42.667968-42.664062v-64zm0 0" fill="#ffa300"/><path d="m426.679688 426.839844v-64h-128v64c0 23.5625 19.101562 42.664062 42.667968 42.664062h42.667969c23.5625 0 42.664063-19.101562 42.664063-42.664062zm0 0" fill="#ffc200"/><path d="m341.347656 170.839844h85.332032c11.78125 0 21.335937 9.550781 21.335937 21.332031v21.332031c0 11.785156-9.554687 21.335938-21.335937 21.335938h-85.332032c-11.78125 0-21.332031-9.550782-21.332031-21.335938v-21.332031c0-11.78125 9.550781-21.332031 21.332031-21.332031zm0 0" fill="#163969"/><path d="m341.347656 170.839844h42.667969c11.78125 0 21.332031 9.550781 21.332031 21.332031v21.332031c0 11.785156-9.550781 21.335938-21.332031 21.335938h-42.667969c-11.78125 0-21.332031-9.550782-21.332031-21.335938v-21.332031c0-11.78125 9.550781-21.332031 21.332031-21.332031zm0 0" fill="#33527d"/><path d="m320.015625 298.839844h128v128h-128zm0 0" fill="#d6deff"/><path d="m320.015625 298.839844h106.664063v128h-106.664063zm0 0" fill="#eff2ff"/><path d="m362.679688 170.839844c11.78125 0 21.335937 9.550781 21.335937 21.332031v21.332031c0 11.785156-9.554687 21.335938-21.335937 21.335938s-21.332032-9.550782-21.332032-21.335938v-21.332031c0-11.78125 9.550782-21.332031 21.332032-21.332031zm0 0" fill="#5e7599"/></svg>